<svg width="320" height="41" viewBox="0 0 320 41" fill="none" xmlns="http://www.w3.org/2000/svg">
<g clip-path="url(#clip0_25503_130)">
<path fill-rule="evenodd" clip-rule="evenodd" d="M23.3173 38.7986C33.644 38.7986 42.0154 30.4272 42.0154 20.1005C42.0154 13.7242 38.8238 8.09343 33.951 4.71842L34.2279 3.21608C39.7584 6.79715 43.4178 13.0215 43.4178 20.1005C43.4178 31.2017 34.4185 40.201 23.3173 40.201C17.9523 40.201 13.0783 38.0991 9.47368 34.674L10.3239 33.5464C13.688 36.798 18.269 38.7986 23.3173 38.7986ZM31.3575 1.67254C28.8953 0.596774 26.176 0 23.3173 0C12.2161 0 3.2168 8.99931 3.2168 20.1005C3.2168 22.2014 3.53911 24.2271 4.13701 26.1306L5.3593 25.3266C4.87746 23.6681 4.61916 21.9144 4.61916 20.1005C4.61916 9.77383 12.9906 1.40236 23.3173 1.40236C25.7933 1.40236 28.1569 1.88362 30.3197 2.75771L31.3575 1.67254Z" fill="#121B24"/>
<path fill-rule="evenodd" clip-rule="evenodd" d="M35.3432 2.47452C35.4435 1.83493 35.354 0.86256 34.5991 0.3223C33.7921 -0.255256 32.705 -0.014588 31.5528 0.710364C30.912 1.11354 30.1521 1.91415 29.335 2.91558C28.4992 3.93979 27.5436 5.25064 26.5123 6.75057C24.4489 9.75155 22.0532 13.5522 19.663 17.4229C18.8946 18.6672 18.1279 19.9169 17.3728 21.1499C16.2657 21.2126 15.2351 21.3187 14.2728 21.4578C10.1631 22.0518 7.3344 23.2428 5.18259 24.1592C2.84334 25.1553 1.20649 26.9799 0.45868 29.2607C-0.286387 31.5332 -0.134596 34.2082 0.993536 36.9159C1.46781 38.0543 2.1186 38.8321 2.93344 39.2421C3.75128 39.6536 4.61701 39.6354 5.40144 39.4155C6.92564 38.9884 8.34517 37.7493 9.17861 36.7948L9.19759 36.7721C10.3024 35.4035 12.0605 32.6789 14.1151 29.3745C15.2507 27.548 16.4907 25.5216 17.774 23.4246L18.2496 22.6473C21.0099 22.5487 24.2704 22.727 28.161 23.3523C26.5033 29.6398 25.1463 34.9438 24.9542 36.1681C24.7444 37.5053 24.8515 38.4744 25.1858 39.1472C25.3185 39.4145 25.4875 39.6323 25.6781 39.799L27.4041 39.1472C27.2941 38.8708 27.0288 38.6738 26.7168 38.665C26.694 38.6546 26.6269 38.6116 26.5518 38.4604C26.4173 38.1897 26.2777 37.5864 26.4626 36.4075C26.641 35.2707 27.987 30.0031 29.6724 23.6121C29.9973 23.6715 30.3265 23.734 30.6599 23.7996C31.0738 23.881 31.4749 23.6095 31.5558 23.1932C31.6367 22.7768 31.3668 22.3733 30.9529 22.2919C30.6541 22.2331 30.3584 22.1767 30.0659 22.1228C31.8685 15.3124 33.9481 7.61335 35.3254 2.5578L35.3432 2.47452ZM28.5551 21.86C24.9681 21.2754 21.8821 21.0579 19.2044 21.0884C19.7873 20.1376 20.3744 19.1821 20.9602 18.2336C23.3491 14.3649 25.7278 10.592 27.7682 7.62452C28.7888 6.1402 29.7175 4.86802 30.5153 3.89031C31.3317 2.88981 31.9546 2.26958 32.3625 2.01286C33.4009 1.35953 33.7118 1.57261 33.7139 1.57413C33.7664 1.61171 33.8907 1.81304 33.8402 2.19706C32.4534 7.28839 30.3617 15.0328 28.5551 21.86ZM14.49 22.9785C15.0917 22.8915 15.7233 22.8178 16.3872 22.7603C15.1375 24.8026 13.9329 26.7706 12.8203 28.5599C10.7571 31.8783 9.0556 34.5079 8.02154 35.792C7.26488 36.6555 6.0913 37.6275 4.99164 37.9357C4.46178 38.0842 4.00571 38.0639 3.6165 37.8681C3.2243 37.6708 2.78283 37.2362 2.40193 36.3221C1.39213 33.8984 1.29724 31.6076 1.90894 29.7419C2.51789 27.8846 3.84124 26.3986 5.77787 25.5739C7.90192 24.6694 10.5824 23.5432 14.49 22.9785Z" fill="#121B24"/>
<path d="M79.8044 32.4824L69.6866 7.71863H72.0215L82.21 32.4824H79.8044ZM59.498 32.4824L69.6866 7.71863H72.0215L61.9037 32.4824H59.498ZM64.3093 24.8056V22.7538H77.3987V24.8056H64.3093Z" fill="#121B24"/>
<path d="M91.7324 32.4824V7.71863H105.989V9.77047H93.9965V18.6854H105.14V20.7373H93.9965V30.4306H105.989V32.4824H91.7324Z" fill="#121B24"/>
<path d="M126.08 32.9069C124.688 32.9069 123.462 32.7654 122.401 32.4824C121.363 32.1758 120.467 31.7631 119.712 31.2442C118.957 30.7254 118.332 30.1475 117.837 29.5107C117.365 28.8739 117 28.2018 116.74 27.4943L118.863 26.6806C119.264 27.7891 120.054 28.7678 121.233 29.6169C122.413 30.4424 123.851 30.8551 125.549 30.8551C127.719 30.8551 129.405 30.4424 130.608 29.6169C131.811 28.7678 132.412 27.6594 132.412 26.2914C132.412 24.9708 131.858 23.9212 130.749 23.1429C129.641 22.341 128.202 21.7161 126.433 21.2679L123.922 20.6311C122.837 20.3481 121.822 19.9472 120.879 19.4283C119.96 18.8859 119.217 18.202 118.651 17.3765C118.085 16.5511 117.802 15.5369 117.802 14.3341C117.802 12.1171 118.509 10.3955 119.924 9.16903C121.339 7.91906 123.403 7.29407 126.115 7.29407C127.742 7.29407 129.145 7.57708 130.325 8.1431C131.504 8.68557 132.448 9.36955 133.155 10.195C133.886 10.9969 134.37 11.8106 134.606 12.636L132.518 13.4496C132 12.1525 131.151 11.1501 129.971 10.4426C128.816 9.7115 127.412 9.34591 125.761 9.34591C124.016 9.34591 122.625 9.77043 121.587 10.6195C120.573 11.4685 120.066 12.6124 120.066 14.051C120.066 15.3482 120.467 16.327 121.268 16.9873C122.07 17.6241 123.12 18.1076 124.417 18.4378L126.929 19.0392C129.428 19.6288 131.339 20.5722 132.66 21.8693C134.004 23.1429 134.676 24.5109 134.676 25.973C134.676 27.2231 134.358 28.3787 133.721 29.44C133.084 30.4777 132.129 31.315 130.856 31.9517C129.582 32.5885 127.99 32.9069 126.08 32.9069Z" fill="#121B24"/>
<path d="M150.675 32.4824V9.77047H142.609V7.71863H161.005V9.77047H152.939V32.4824H150.675Z" fill="#121B24"/>
<path d="M187.791 32.4824V7.71863H190.055V32.4824H187.791ZM170.527 32.4824V7.71863H172.791V32.4824H170.527ZM172.791 20.7373V18.6854H187.791V20.7373H172.791Z" fill="#121B24"/>
<path d="M202.758 32.4824V7.71863H217.015V9.77047H205.022V18.6854H216.166V20.7373H205.022V30.4306H217.015V32.4824H202.758Z" fill="#121B24"/>
<path d="M234.238 32.4824V9.77047H226.172V7.71863H244.568V9.77047H236.502V32.4824H234.238Z" fill="#121B24"/>
<path d="M254.09 32.4824V7.71863H256.354V32.4824H254.09Z" fill="#121B24"/>
<path d="M279.268 32.9069C276.933 32.9069 274.858 32.3645 273.042 31.2796C271.25 30.1712 269.835 28.6617 268.797 26.7513C267.783 24.8174 267.275 22.6005 267.275 20.1005C267.275 17.6005 267.783 15.3954 268.797 13.485C269.81 11.5511 271.214 10.0417 273.006 8.95677C274.799 7.8483 276.85 7.29407 279.162 7.29407C280.554 7.29407 281.909 7.5535 283.23 8.07234C284.575 8.56762 285.79 9.27516 286.874 10.195C287.959 11.0912 288.797 12.1289 289.386 13.3081L287.511 14.4756C287.016 13.4614 286.32 12.577 285.424 11.8223C284.551 11.044 283.572 10.4426 282.487 10.0181C281.403 9.56999 280.294 9.34591 279.162 9.34591C277.299 9.34591 275.636 9.80581 274.174 10.7256C272.735 11.6454 271.603 12.919 270.778 14.5463C269.952 16.1501 269.539 18.0015 269.539 20.1005C269.539 22.2231 269.952 24.0981 270.778 25.7254C271.603 27.3527 272.747 28.6263 274.209 29.5461C275.695 30.4659 277.381 30.9258 279.268 30.9258C280.424 30.9258 281.544 30.69 282.629 30.2183C283.714 29.723 284.693 29.0508 285.565 28.2018C286.462 27.3527 287.157 26.3858 287.652 25.3009L289.527 26.4683C288.914 27.7183 288.065 28.8386 286.98 29.8291C285.919 30.7961 284.716 31.5509 283.372 32.0932C282.028 32.6357 280.66 32.9069 279.268 32.9069Z" fill="#121B24"/>
<path d="M317.222 32.4824L307.105 7.71863H309.439L319.628 32.4824H317.222ZM296.916 32.4824L307.105 7.71863H309.439L299.322 32.4824H296.916ZM301.727 24.8056V22.7538H314.817V24.8056H301.727Z" fill="#121B24"/>
</g>
<defs>
<clipPath id="clip0_25503_130">
<rect width="320" height="40.201" fill="white"/>
</clipPath>
</defs>
</svg>
